<svg width="189" height="41" viewBox="0 0 189 41" fill="none" xmlns="http://www.w3.org/2000/svg">
<g clip-path="url(#clip0_412_171)">
<path d="M169 0.75H20C9.23045 0.75 0.5 9.48045 0.5 20.25C0.5 31.0196 9.23045 39.75 20 39.75H169C179.77 39.75 188.5 31.0196 188.5 20.25C188.5 9.48045 179.77 0.75 169 0.75Z" fill="white"/>
<mask id="mask0_412_171" style="mask-type:luminance" maskUnits="userSpaceOnUse" x="12" y="10" width="20" height="21">
<path d="M32 10.25H12V30.25H32V10.25Z" fill="white"/>
</mask>
<g mask="url(#mask0_412_171)">
<path d="M31.6 20.4773C31.6 19.7682 31.5364 19.0864 31.4182 18.4318H22V22.3H27.3818C27.15 23.55 26.4455 24.6091 25.3864 25.3182V27.8273H28.6182C30.5091 26.0864 31.6 23.5227 31.6 20.4773Z" fill="#4285F4"/>
<path d="M22 30.25C24.7 30.25 26.9636 29.3545 28.6181 27.8273L25.3863 25.3182C24.4909 25.9182 23.3454 26.2727 22 26.2727C19.3954 26.2727 17.1909 24.5136 16.4045 22.15H13.0636V24.7409C14.7091 28.0091 18.0909 30.25 22 30.25Z" fill="#34A853"/>
<path d="M16.4045 22.15C16.2045 21.55 16.0909 20.9091 16.0909 20.25C16.0909 19.5909 16.2045 18.95 16.4045 18.35V15.7591H13.0636C12.3864 17.1091 12 18.6364 12 20.25C12 21.8636 12.3864 23.3909 13.0636 24.7409L16.4045 22.15Z" fill="#FBBC04"/>
<path d="M22 14.2273C23.4681 14.2273 24.7863 14.7318 25.8227 15.7227L28.6909 12.8545C26.9591 11.2409 24.6954 10.25 22 10.25C18.0909 10.25 14.7091 12.4909 13.0636 15.7591L16.4045 18.35C17.1909 15.9864 19.3954 14.2273 22 14.2273Z" fill="#E94235"/>
</g>
<path d="M48.8906 22.0098H50.5996C50.5449 22.6615 50.3626 23.2425 50.0527 23.7529C49.7428 24.2588 49.3076 24.6576 48.7471 24.9492C48.1865 25.2409 47.5052 25.3867 46.7031 25.3867C46.0879 25.3867 45.5342 25.2773 45.042 25.0586C44.5498 24.8353 44.1283 24.5208 43.7773 24.1152C43.4264 23.7051 43.1576 23.2106 42.9707 22.6318C42.7884 22.0531 42.6973 21.4059 42.6973 20.6904V19.8633C42.6973 19.1478 42.7907 18.5007 42.9775 17.9219C43.1689 17.3431 43.4424 16.8486 43.7979 16.4385C44.1533 16.0238 44.5794 15.707 45.0762 15.4883C45.5775 15.2695 46.1403 15.1602 46.7646 15.1602C47.5576 15.1602 48.2275 15.306 48.7744 15.5977C49.3213 15.8893 49.7451 16.2926 50.0459 16.8076C50.3512 17.3226 50.5381 17.9128 50.6064 18.5781H48.8975C48.8519 18.1497 48.7516 17.7829 48.5967 17.4775C48.4463 17.1722 48.223 16.9398 47.9268 16.7803C47.6305 16.6162 47.2432 16.5342 46.7646 16.5342C46.3727 16.5342 46.0309 16.6071 45.7393 16.7529C45.4476 16.8988 45.2038 17.113 45.0078 17.3955C44.8118 17.6781 44.6637 18.0267 44.5635 18.4414C44.4678 18.8516 44.4199 19.321 44.4199 19.8496V20.6904C44.4199 21.1917 44.4632 21.6475 44.5498 22.0576C44.641 22.4632 44.7777 22.8118 44.96 23.1035C45.1468 23.3952 45.3838 23.6208 45.6709 23.7803C45.958 23.9398 46.3021 24.0195 46.7031 24.0195C47.1908 24.0195 47.585 23.9421 47.8857 23.7871C48.1911 23.6322 48.4212 23.4066 48.5762 23.1104C48.7357 22.8096 48.8405 22.4427 48.8906 22.0098ZM51.6797 21.6338V21.4766C51.6797 20.9434 51.7572 20.4489 51.9121 19.9932C52.0671 19.5329 52.2904 19.1341 52.582 18.7969C52.8783 18.4551 53.2383 18.1908 53.6621 18.0039C54.0905 17.8125 54.5736 17.7168 55.1113 17.7168C55.6536 17.7168 56.1367 17.8125 56.5605 18.0039C56.9889 18.1908 57.3512 18.4551 57.6475 18.7969C57.9437 19.1341 58.1693 19.5329 58.3242 19.9932C58.4792 20.4489 58.5566 20.9434 58.5566 21.4766V21.6338C58.5566 22.167 58.4792 22.6615 58.3242 23.1172C58.1693 23.5729 57.9437 23.9717 57.6475 24.3135C57.3512 24.6507 56.9912 24.915 56.5674 25.1064C56.1436 25.2933 55.6628 25.3867 55.125 25.3867C54.5827 25.3867 54.0973 25.2933 53.6689 25.1064C53.2451 24.915 52.8851 24.6507 52.5889 24.3135C52.2926 23.9717 52.0671 23.5729 51.9121 23.1172C51.7572 22.6615 51.6797 22.167 51.6797 21.6338ZM53.3271 21.4766V21.6338C53.3271 21.9665 53.3613 22.2809 53.4297 22.5771C53.498 22.8734 53.6051 23.1331 53.751 23.3564C53.8968 23.5798 54.0837 23.7552 54.3115 23.8828C54.5394 24.0104 54.8105 24.0742 55.125 24.0742C55.4303 24.0742 55.6947 24.0104 55.918 23.8828C56.1458 23.7552 56.3327 23.5798 56.4785 23.3564C56.6243 23.1331 56.7314 22.8734 56.7998 22.5771C56.8727 22.2809 56.9092 21.9665 56.9092 21.6338V21.4766C56.9092 21.1484 56.8727 20.8385 56.7998 20.5469C56.7314 20.2507 56.6221 19.9886 56.4717 19.7607C56.3258 19.5329 56.139 19.3551 55.9111 19.2275C55.6878 19.0954 55.4212 19.0293 55.1113 19.0293C54.8014 19.0293 54.5326 19.0954 54.3047 19.2275C54.0814 19.3551 53.8968 19.5329 53.751 19.7607C53.6051 19.9886 53.498 20.2507 53.4297 20.5469C53.3613 20.8385 53.3271 21.1484 53.3271 21.4766ZM61.5713 19.4326V25.25H59.9238V17.8535H61.4756L61.5713 19.4326ZM61.2773 21.2783L60.7441 21.2715C60.7487 20.7474 60.8216 20.2666 60.9629 19.8291C61.1087 19.3916 61.3092 19.0156 61.5645 18.7012C61.8242 18.3867 62.1341 18.1452 62.4941 17.9766C62.8542 17.8034 63.2552 17.7168 63.6973 17.7168C64.0527 17.7168 64.374 17.7669 64.6611 17.8672C64.9528 17.9629 65.2012 18.1201 65.4062 18.3389C65.6159 18.5576 65.7754 18.8424 65.8848 19.1934C65.9941 19.5397 66.0488 19.9658 66.0488 20.4717V25.25H64.3945V20.4648C64.3945 20.1094 64.3421 19.8291 64.2373 19.624C64.137 19.4144 63.9889 19.2663 63.793 19.1797C63.6016 19.0885 63.3623 19.043 63.0752 19.043C62.7926 19.043 62.5397 19.1022 62.3164 19.2207C62.0931 19.3392 61.904 19.501 61.749 19.7061C61.5986 19.9111 61.4824 20.1481 61.4004 20.417C61.3184 20.6859 61.2773 20.973 61.2773 21.2783ZM71.1211 17.8535V19.0566H66.9512V17.8535H71.1211ZM68.1543 16.042H69.8018V23.2061C69.8018 23.4339 69.8337 23.6094 69.8975 23.7324C69.9658 23.8509 70.0592 23.9307 70.1777 23.9717C70.2962 24.0127 70.4352 24.0332 70.5947 24.0332C70.7087 24.0332 70.818 24.0264 70.9229 24.0127C71.0277 23.999 71.112 23.9854 71.1758 23.9717L71.1826 25.2295C71.0459 25.2705 70.8864 25.307 70.7041 25.3389C70.5264 25.3708 70.3213 25.3867 70.0889 25.3867C69.7106 25.3867 69.3757 25.3206 69.084 25.1885C68.7923 25.0518 68.5645 24.8307 68.4004 24.5254C68.2363 24.2201 68.1543 23.8145 68.1543 23.3086V16.042ZM74.1562 17.8535V25.25H72.502V17.8535H74.1562ZM72.3926 15.9121C72.3926 15.6615 72.4746 15.4541 72.6387 15.29C72.8073 15.1214 73.0397 15.0371 73.3359 15.0371C73.6276 15.0371 73.8577 15.1214 74.0264 15.29C74.195 15.4541 74.2793 15.6615 74.2793 15.9121C74.2793 16.1582 74.195 16.3633 74.0264 16.5273C73.8577 16.6914 73.6276 16.7734 73.3359 16.7734C73.0397 16.7734 72.8073 16.6914 72.6387 16.5273C72.4746 16.3633 72.3926 16.1582 72.3926 15.9121ZM77.5947 19.4326V25.25H75.9473V17.8535H77.499L77.5947 19.4326ZM77.3008 21.2783L76.7676 21.2715C76.7721 20.7474 76.8451 20.2666 76.9863 19.8291C77.1322 19.3916 77.3327 19.0156 77.5879 18.7012C77.8477 18.3867 78.1576 18.1452 78.5176 17.9766C78.8776 17.8034 79.2786 17.7168 79.7207 17.7168C80.0762 17.7168 80.3975 17.7669 80.6846 17.8672C80.9762 17.9629 81.2246 18.1201 81.4297 18.3389C81.6393 18.5576 81.7988 18.8424 81.9082 19.1934C82.0176 19.5397 82.0723 19.9658 82.0723 20.4717V25.25H80.418V20.4648C80.418 20.1094 80.3656 19.8291 80.2607 19.624C80.1605 19.4144 80.0124 19.2663 79.8164 19.1797C79.625 19.0885 79.3857 19.043 79.0986 19.043C78.8161 19.043 78.5632 19.1022 78.3398 19.2207C78.1165 19.3392 77.9274 19.501 77.7725 19.7061C77.6221 19.9111 77.5059 20.1481 77.4238 20.417C77.3418 20.6859 77.3008 20.973 77.3008 21.2783ZM88.2041 23.5068V17.8535H89.8584V25.25H88.2998L88.2041 23.5068ZM88.4365 21.9688L88.9902 21.9551C88.9902 22.4518 88.9355 22.9098 88.8262 23.3291C88.7168 23.7438 88.5482 24.1061 88.3203 24.416C88.0924 24.7214 87.8008 24.9606 87.4453 25.1338C87.0898 25.3024 86.6637 25.3867 86.167 25.3867C85.807 25.3867 85.4766 25.3343 85.1758 25.2295C84.875 25.1247 84.6152 24.9629 84.3965 24.7441C84.1823 24.5254 84.016 24.2406 83.8975 23.8896C83.779 23.5387 83.7197 23.1195 83.7197 22.6318V17.8535H85.3672V22.6455C85.3672 22.9144 85.3991 23.14 85.4629 23.3223C85.5267 23.5 85.6133 23.6436 85.7227 23.7529C85.832 23.8623 85.9596 23.9398 86.1055 23.9854C86.2513 24.0309 86.4062 24.0537 86.5703 24.0537C87.0397 24.0537 87.4089 23.9626 87.6777 23.7803C87.9512 23.5934 88.1449 23.3428 88.2588 23.0283C88.3773 22.7139 88.4365 22.3607 88.4365 21.9688ZM94.8076 25.3867C94.2607 25.3867 93.7663 25.2979 93.3242 25.1201C92.8867 24.9378 92.513 24.6849 92.2031 24.3613C91.8978 24.0378 91.6631 23.6572 91.499 23.2197C91.335 22.7822 91.2529 22.3105 91.2529 21.8047V21.5312C91.2529 20.9525 91.3372 20.4284 91.5059 19.959C91.6745 19.4896 91.9092 19.0885 92.21 18.7559C92.5107 18.4186 92.8662 18.1611 93.2764 17.9834C93.6865 17.8057 94.1309 17.7168 94.6094 17.7168C95.138 17.7168 95.6006 17.8057 95.9971 17.9834C96.3936 18.1611 96.7217 18.4118 96.9814 18.7354C97.2458 19.0544 97.4417 19.4349 97.5693 19.877C97.7015 20.319 97.7676 20.8066 97.7676 21.3398V22.0439H92.0527V20.8613H96.1406V20.7314C96.1315 20.4352 96.0723 20.1572 95.9629 19.8975C95.8581 19.6377 95.6963 19.4281 95.4775 19.2686C95.2588 19.109 94.9671 19.0293 94.6025 19.0293C94.3291 19.0293 94.0853 19.0885 93.8711 19.207C93.6615 19.321 93.486 19.4873 93.3447 19.7061C93.2035 19.9248 93.0941 20.1891 93.0166 20.499C92.9437 20.8044 92.9072 21.1484 92.9072 21.5312V21.8047C92.9072 22.1283 92.9505 22.429 93.0371 22.707C93.1283 22.9805 93.2604 23.2197 93.4336 23.4248C93.6068 23.6299 93.8164 23.7917 94.0625 23.9102C94.3086 24.0241 94.5889 24.0811 94.9033 24.0811C95.2998 24.0811 95.653 24.0013 95.9629 23.8418C96.2728 23.6823 96.5417 23.4567 96.7695 23.165L97.6377 24.0059C97.4782 24.2383 97.2708 24.4616 97.0156 24.6758C96.7604 24.8854 96.4482 25.0563 96.0791 25.1885C95.7145 25.3206 95.2907 25.3867 94.8076 25.3867ZM104.549 23.6094L106.258 17.8535H107.311L107.023 19.5762L105.301 25.25H104.357L104.549 23.6094ZM103.544 17.8535L104.877 23.6367L104.986 25.25H103.934L101.931 17.8535H103.544ZM108.91 23.5684L110.202 17.8535H111.809L109.812 25.25H108.76L108.91 23.5684ZM107.488 17.8535L109.177 23.541L109.389 25.25H108.445L106.702 19.5693L106.415 17.8535H107.488ZM114.693 17.8535V25.25H113.039V17.8535H114.693ZM112.93 15.9121C112.93 15.6615 113.012 15.4541 113.176 15.29C113.344 15.1214 113.577 15.0371 113.873 15.0371C114.165 15.0371 114.395 15.1214 114.563 15.29C114.732 15.4541 114.816 15.6615 114.816 15.9121C114.816 16.1582 114.732 16.3633 114.563 16.5273C114.395 16.6914 114.165 16.7734 113.873 16.7734C113.577 16.7734 113.344 16.6914 113.176 16.5273C113.012 16.3633 112.93 16.1582 112.93 15.9121ZM119.889 17.8535V19.0566H115.719V17.8535H119.889ZM116.922 16.042H118.569V23.2061C118.569 23.4339 118.601 23.6094 118.665 23.7324C118.733 23.8509 118.827 23.9307 118.945 23.9717C119.064 24.0127 119.203 24.0332 119.362 24.0332C119.476 24.0332 119.586 24.0264 119.69 24.0127C119.795 23.999 119.88 23.9854 119.943 23.9717L119.95 25.2295C119.813 25.2705 119.654 25.307 119.472 25.3389C119.294 25.3708 119.089 25.3867 118.856 25.3867C118.478 25.3867 118.143 25.3206 117.852 25.1885C117.56 25.0518 117.332 24.8307 117.168 24.5254C117.004 24.2201 116.922 23.8145 116.922 23.3086V16.042ZM122.787 14.75V25.25H121.146V14.75H122.787ZM122.5 21.2783L121.967 21.2715C121.971 20.7611 122.042 20.2894 122.179 19.8564C122.32 19.4235 122.516 19.0475 122.767 18.7285C123.022 18.4049 123.327 18.1566 123.683 17.9834C124.038 17.8057 124.432 17.7168 124.865 17.7168C125.23 17.7168 125.558 17.7669 125.85 17.8672C126.146 17.9674 126.401 18.1292 126.615 18.3525C126.829 18.5713 126.991 18.8584 127.101 19.2139C127.215 19.5648 127.271 19.9932 127.271 20.499V25.25H125.617V20.4854C125.617 20.1299 125.565 19.8473 125.46 19.6377C125.36 19.4281 125.212 19.2777 125.016 19.1865C124.82 19.0908 124.58 19.043 124.298 19.043C124.002 19.043 123.74 19.1022 123.512 19.2207C123.288 19.3392 123.102 19.501 122.951 19.7061C122.801 19.9111 122.687 20.1481 122.609 20.417C122.536 20.6859 122.5 20.973 122.5 21.2783ZM140.232 20.1641V23.9648C140.091 24.1517 139.87 24.3568 139.569 24.5801C139.273 24.7988 138.879 24.988 138.387 25.1475C137.895 25.307 137.282 25.3867 136.548 25.3867C135.924 25.3867 135.352 25.2819 134.832 25.0723C134.312 24.8581 133.864 24.5459 133.485 24.1357C133.112 23.7256 132.822 23.2266 132.617 22.6387C132.412 22.0462 132.31 21.3717 132.31 20.6152V19.9248C132.31 19.1729 132.403 18.5029 132.59 17.915C132.781 17.3226 133.055 16.8213 133.41 16.4111C133.766 16.001 134.194 15.6911 134.695 15.4814C135.201 15.2673 135.773 15.1602 136.411 15.1602C137.227 15.1602 137.901 15.2969 138.435 15.5703C138.972 15.8392 139.387 16.2129 139.679 16.6914C139.97 17.1699 140.155 17.7168 140.232 18.332H138.551C138.496 17.9857 138.389 17.6758 138.229 17.4023C138.075 17.1289 137.851 16.9147 137.56 16.7598C137.272 16.6003 136.899 16.5205 136.438 16.5205C136.042 16.5205 135.693 16.5957 135.393 16.7461C135.092 16.8965 134.841 17.1175 134.641 17.4092C134.445 17.7008 134.297 18.0563 134.196 18.4756C134.096 18.8949 134.046 19.3734 134.046 19.9111V20.6152C134.046 21.1621 134.103 21.6475 134.217 22.0713C134.335 22.4951 134.504 22.8529 134.723 23.1445C134.946 23.4362 135.217 23.6572 135.536 23.8076C135.855 23.9535 136.215 24.0264 136.616 24.0264C137.008 24.0264 137.329 23.9945 137.58 23.9307C137.831 23.8623 138.029 23.7826 138.175 23.6914C138.325 23.5957 138.441 23.5046 138.523 23.418V21.4424H136.452V20.1641H140.232ZM141.654 21.6338V21.4766C141.654 20.9434 141.732 20.4489 141.887 19.9932C142.042 19.5329 142.265 19.1341 142.557 18.7969C142.853 18.4551 143.213 18.1908 143.637 18.0039C144.065 17.8125 144.548 17.7168 145.086 17.7168C145.628 17.7168 146.111 17.8125 146.535 18.0039C146.964 18.1908 147.326 18.4551 147.622 18.7969C147.918 19.1341 148.144 19.5329 148.299 19.9932C148.454 20.4489 148.531 20.9434 148.531 21.4766V21.6338C148.531 22.167 148.454 22.6615 148.299 23.1172C148.144 23.5729 147.918 23.9717 147.622 24.3135C147.326 24.6507 146.966 24.915 146.542 25.1064C146.118 25.2933 145.637 25.3867 145.1 25.3867C144.557 25.3867 144.072 25.2933 143.644 25.1064C143.22 24.915 142.86 24.6507 142.563 24.3135C142.267 23.9717 142.042 23.5729 141.887 23.1172C141.732 22.6615 141.654 22.167 141.654 21.6338ZM143.302 21.4766V21.6338C143.302 21.9665 143.336 22.2809 143.404 22.5771C143.473 22.8734 143.58 23.1331 143.726 23.3564C143.871 23.5798 144.058 23.7552 144.286 23.8828C144.514 24.0104 144.785 24.0742 145.1 24.0742C145.405 24.0742 145.669 24.0104 145.893 23.8828C146.12 23.7552 146.307 23.5798 146.453 23.3564C146.599 23.1331 146.706 22.8734 146.774 22.5771C146.847 22.2809 146.884 21.9665 146.884 21.6338V21.4766C146.884 21.1484 146.847 20.8385 146.774 20.5469C146.706 20.2507 146.597 19.9886 146.446 19.7607C146.3 19.5329 146.114 19.3551 145.886 19.2275C145.662 19.0954 145.396 19.0293 145.086 19.0293C144.776 19.0293 144.507 19.0954 144.279 19.2275C144.056 19.3551 143.871 19.5329 143.726 19.7607C143.58 19.9886 143.473 20.2507 143.404 20.5469C143.336 20.8385 143.302 21.1484 143.302 21.4766ZM149.598 21.6338V21.4766C149.598 20.9434 149.675 20.4489 149.83 19.9932C149.985 19.5329 150.208 19.1341 150.5 18.7969C150.796 18.4551 151.156 18.1908 151.58 18.0039C152.008 17.8125 152.492 17.7168 153.029 17.7168C153.572 17.7168 154.055 17.8125 154.479 18.0039C154.907 18.1908 155.269 18.4551 155.565 18.7969C155.862 19.1341 156.087 19.5329 156.242 19.9932C156.397 20.4489 156.475 20.9434 156.475 21.4766V21.6338C156.475 22.167 156.397 22.6615 156.242 23.1172C156.087 23.5729 155.862 23.9717 155.565 24.3135C155.269 24.6507 154.909 24.915 154.485 25.1064C154.062 25.2933 153.581 25.3867 153.043 25.3867C152.501 25.3867 152.015 25.2933 151.587 25.1064C151.163 24.915 150.803 24.6507 150.507 24.3135C150.211 23.9717 149.985 23.5729 149.83 23.1172C149.675 22.6615 149.598 22.167 149.598 21.6338ZM151.245 21.4766V21.6338C151.245 21.9665 151.279 22.2809 151.348 22.5771C151.416 22.8734 151.523 23.1331 151.669 23.3564C151.815 23.5798 152.002 23.7552 152.229 23.8828C152.457 24.0104 152.729 24.0742 153.043 24.0742C153.348 24.0742 153.613 24.0104 153.836 23.8828C154.064 23.7552 154.251 23.5798 154.396 23.3564C154.542 23.1331 154.649 22.8734 154.718 22.5771C154.791 22.2809 154.827 21.9665 154.827 21.6338V21.4766C154.827 21.1484 154.791 20.8385 154.718 20.5469C154.649 20.2507 154.54 19.9886 154.39 19.7607C154.244 19.5329 154.057 19.3551 153.829 19.2275C153.606 19.0954 153.339 19.0293 153.029 19.0293C152.719 19.0293 152.451 19.0954 152.223 19.2275C151.999 19.3551 151.815 19.5329 151.669 19.7607C151.523 19.9886 151.416 20.2507 151.348 20.5469C151.279 20.8385 151.245 21.1484 151.245 21.4766ZM162.593 17.8535H164.09V25.0449C164.09 25.7103 163.949 26.2754 163.666 26.7402C163.383 27.2051 162.989 27.5583 162.483 27.7998C161.978 28.0459 161.392 28.1689 160.727 28.1689C160.444 28.1689 160.13 28.1279 159.783 28.0459C159.441 27.9639 159.109 27.8317 158.785 27.6494C158.466 27.4717 158.2 27.237 157.985 26.9453L158.758 25.9746C159.022 26.2891 159.314 26.5192 159.633 26.665C159.952 26.8109 160.287 26.8838 160.638 26.8838C161.016 26.8838 161.337 26.8132 161.602 26.6719C161.87 26.5352 162.078 26.3324 162.224 26.0635C162.369 25.7946 162.442 25.4665 162.442 25.0791V19.5283L162.593 17.8535ZM157.568 21.6338V21.4902C157.568 20.9297 157.637 20.4193 157.773 19.959C157.91 19.4941 158.106 19.0954 158.361 18.7627C158.617 18.4255 158.926 18.168 159.291 17.9902C159.656 17.8079 160.068 17.7168 160.528 17.7168C161.007 17.7168 161.415 17.8034 161.752 17.9766C162.094 18.1497 162.379 18.3981 162.606 18.7217C162.834 19.0407 163.012 19.4235 163.14 19.8701C163.272 20.3122 163.37 20.8044 163.434 21.3467V21.8047C163.374 22.3333 163.274 22.8164 163.133 23.2539C162.992 23.6914 162.805 24.0697 162.572 24.3887C162.34 24.7077 162.053 24.9538 161.711 25.127C161.374 25.3001 160.975 25.3867 160.515 25.3867C160.063 25.3867 159.656 25.2933 159.291 25.1064C158.931 24.9196 158.621 24.6576 158.361 24.3203C158.106 23.9831 157.91 23.5866 157.773 23.1309C157.637 22.6706 157.568 22.1715 157.568 21.6338ZM159.216 21.4902V21.6338C159.216 21.971 159.248 22.2855 159.312 22.5771C159.38 22.8688 159.482 23.1263 159.619 23.3496C159.76 23.5684 159.938 23.7415 160.152 23.8691C160.371 23.9922 160.629 24.0537 160.925 24.0537C161.312 24.0537 161.629 23.9717 161.875 23.8076C162.126 23.6436 162.317 23.4225 162.449 23.1445C162.586 22.862 162.682 22.5475 162.736 22.2012V20.9639C162.709 20.695 162.652 20.4443 162.565 20.2119C162.483 19.9795 162.372 19.7767 162.23 19.6035C162.089 19.4258 161.911 19.2891 161.697 19.1934C161.483 19.0931 161.23 19.043 160.938 19.043C160.642 19.043 160.385 19.1068 160.166 19.2344C159.947 19.362 159.767 19.5374 159.626 19.7607C159.489 19.984 159.387 20.2438 159.318 20.54C159.25 20.8363 159.216 21.153 159.216 21.4902ZM167.562 14.75V25.25H165.908V14.75H167.562ZM172.628 25.3867C172.081 25.3867 171.587 25.2979 171.145 25.1201C170.707 24.9378 170.333 24.6849 170.023 24.3613C169.718 24.0378 169.483 23.6572 169.319 23.2197C169.155 22.7822 169.073 22.3105 169.073 21.8047V21.5312C169.073 20.9525 169.158 20.4284 169.326 19.959C169.495 19.4896 169.729 19.0885 170.03 18.7559C170.331 18.4186 170.687 18.1611 171.097 17.9834C171.507 17.8057 171.951 17.7168 172.43 17.7168C172.958 17.7168 173.421 17.8057 173.817 17.9834C174.214 18.1611 174.542 18.4118 174.802 18.7354C175.066 19.0544 175.262 19.4349 175.39 19.877C175.522 20.319 175.588 20.8066 175.588 21.3398V22.0439H169.873V20.8613H173.961V20.7314C173.952 20.4352 173.893 20.1572 173.783 19.8975C173.678 19.6377 173.517 19.4281 173.298 19.2686C173.079 19.109 172.787 19.0293 172.423 19.0293C172.149 19.0293 171.906 19.0885 171.691 19.207C171.482 19.321 171.306 19.4873 171.165 19.7061C171.024 19.9248 170.914 20.1891 170.837 20.499C170.764 20.8044 170.728 21.1484 170.728 21.5312V21.8047C170.728 22.1283 170.771 22.429 170.857 22.707C170.949 22.9805 171.081 23.2197 171.254 23.4248C171.427 23.6299 171.637 23.7917 171.883 23.9102C172.129 24.0241 172.409 24.0811 172.724 24.0811C173.12 24.0811 173.473 24.0013 173.783 23.8418C174.093 23.6823 174.362 23.4567 174.59 23.165L175.458 24.0059C175.299 24.2383 175.091 24.4616 174.836 24.6758C174.581 24.8854 174.269 25.0563 173.899 25.1885C173.535 25.3206 173.111 25.3867 172.628 25.3867Z" fill="#1F1F1F"/>
<path d="M169 0.75H20C9.23045 0.75 0.5 9.48045 0.5 20.25C0.5 31.0196 9.23045 39.75 20 39.75H169C179.77 39.75 188.5 31.0196 188.5 20.25C188.5 9.48045 179.77 0.75 169 0.75Z" stroke="#747775"/>
</g>
<defs>
<clipPath id="clip0_412_171">
<rect width="189" height="40" fill="white" transform="translate(0 0.25)"/>
</clipPath>
</defs>
</svg>
